<svg width="24" height="24" viewBox="0 0 24 24" fill="none" xmlns="http://www.w3.org/2000/svg">
<path d="M12 0C5.37224 0 0 5.37224 0 12C0 18.6278 5.37224 24 12 24C18.627 24 24 18.627 24 12C24 5.37302 18.6278 0 12 0ZM16.2427 15.1822C16.536 15.4755 16.536 15.9502 16.2427 16.2427C15.9495 16.536 15.4747 16.536 15.1822 16.2427L12.0045 13.065L8.80498 16.2645C8.50949 16.5593 8.03098 16.5593 7.73624 16.2645C7.44075 15.969 7.44075 15.4905 7.73624 15.1957L10.9357 11.9962L7.75796 8.81847C7.46471 8.52522 7.46471 8.05047 7.75796 7.758C8.05122 7.46475 8.52596 7.46475 8.81843 7.758L11.9962 10.9358L15.219 7.71302C15.5145 7.41753 15.9929 7.41753 16.2877 7.71302C16.5832 8.00851 16.5832 8.48702 16.2877 8.78176L13.0649 12.0045L16.2427 15.1822Z" fill="#3E3E3E"/>
</svg>
