<svg width="16" height="22" viewBox="0 0 16 22" fill="none" xmlns="http://www.w3.org/2000/svg">
<path d="M1 5.44444H15M6.25 9.88889V16.5556M9.75 9.88889V16.5556M1.875 5.44444L2.75 18.7778C2.75 19.3671 2.93437 19.9324 3.26256 20.3491C3.59075 20.7659 4.03587 21 4.5 21H11.5C11.9641 21 12.4092 20.7659 12.7374 20.3491C13.0656 19.9324 13.25 19.3671 13.25 18.7778L14.125 5.44444M5.375 5.44444V2.11111C5.375 1.81643 5.46719 1.53381 5.63128 1.32544C5.79538 1.11706 6.01794 1 6.25 1H9.75C9.98206 1 10.2046 1.11706 10.3687 1.32544C10.5328 1.53381 10.625 1.81643 10.625 2.11111V5.44444" stroke="#F09DC7" stroke-width="2" stroke-linecap="round" stroke-linejoin="round"/>
</svg>
