<svg width="163" height="35" viewBox="0 0 163 35" fill="none" xmlns="http://www.w3.org/2000/svg">
<g clip-path="url(#clip0_14_555)">
<path d="M72.818 16.1351C72.2593 16.6883 71.9077 17.4552 71.8764 18.2975C71.8199 20.1204 73.4082 21.6102 75.2288 21.6102H77.8027V34.0563C77.8027 34.578 77.3821 34.9992 76.861 34.9992H66.2011C65.68 34.9992 65.2594 34.578 65.2594 34.0563V23.1125C65.2594 22.9365 65.1213 22.7982 64.9455 22.7982H54.9197C54.7439 22.7982 54.6058 22.9365 54.6058 23.1125V34.0563C54.6058 34.578 54.1852 34.9992 53.6641 34.9992H43.0042C42.4831 34.9992 42.0625 34.578 42.0625 34.0563V0.954652C42.0625 0.432921 42.4831 0.0117645 43.0042 0.0117645H53.6641C54.1852 0.0117645 54.6058 0.432921 54.6058 0.954652V11.515C54.6058 11.691 54.7439 11.8293 54.9197 11.8293H64.9455C65.1213 11.8293 65.2594 11.691 65.2594 11.515V0.954652C65.2594 0.432921 65.68 0.0117645 66.2011 0.0117645H76.861C77.3821 0.0117645 77.8027 0.432921 77.8027 0.954652V15.1923H75.0844C74.1992 15.1923 73.3956 15.5506 72.818 16.1351Z" fill="#262626"/>
<path d="M160.1 17.9706L158.581 16.8266L159.981 15.4877C160.709 14.79 161.274 13.9665 161.663 13.0613C162.046 12.1499 162.253 11.1693 162.253 10.1635C162.253 4.55648 159.234 0.0117645 150.526 0.0117645H127.932C127.411 0.0117645 126.99 0.432921 126.99 0.954652V15.1923H129.118C130.889 15.1923 132.32 16.6317 132.32 18.4044C132.32 19.2907 131.962 20.0953 131.385 20.6736C130.807 21.2519 130.004 21.6102 129.118 21.6102H126.99V34.0563C126.99 34.578 127.411 34.9992 127.932 34.9992H151.807C154.896 34.9992 157.953 33.8614 160.05 31.9002C162.492 29.6184 163 26.8841 163 23.7914C163 21.5033 161.927 19.3473 160.1 17.9706ZM139.923 8.29032H146.295C147.745 8.29032 149.019 9.47836 148.957 10.9304C148.925 11.5841 148.649 12.175 148.216 12.6025C147.758 13.0613 147.124 13.3442 146.427 13.3442H139.923C139.747 13.3442 139.609 13.2059 139.609 13.0299V8.60462C139.609 8.42861 139.747 8.29032 139.923 8.29032ZM149.032 25.8909C148.58 26.3498 147.946 26.6326 147.249 26.6326H140.243C140.067 26.6326 139.929 26.4943 139.929 26.3183V21.8868C139.929 21.7108 140.067 21.5725 140.243 21.5725H147.249C148.643 21.5725 149.773 22.7039 149.773 24.1057C149.773 24.8034 149.49 25.4383 149.032 25.8909Z" fill="#262626"/>
<path d="M0.0131823 17.4993C0.0131823 19.5925 -0.306992 24.1121 2.63108 28.3299C7.10723 34.7667 15.2246 34.9239 18.4828 34.9867C20.9877 35.037 30.5804 35.2193 35.0628 28.3299C36.3812 26.2933 36.9085 24.1875 37.1157 22.5217C37.1848 21.956 36.7516 21.4594 36.1803 21.4594H25.0998C24.6791 21.4594 24.3213 21.7423 24.1957 22.1509C23.6307 24.0429 21.8917 25.4133 19.8389 25.4133H18.1313C15.6138 25.4133 13.5672 23.3452 13.5672 20.7931V14.2118C13.5672 11.666 15.6138 9.5916 18.1313 9.5916H19.8389C21.8917 9.5916 23.6307 10.9619 24.1957 12.854C24.315 13.2563 24.6791 13.5454 25.0998 13.5454H36.1803C36.7516 13.5454 37.1848 13.0489 37.1157 12.4831C36.9085 10.8111 36.3812 8.70529 35.0628 6.67494C30.5804 -0.220717 20.9877 -0.0384246 18.4828 0.0118628C15.2246 0.074722 7.10723 0.23187 2.63108 6.66865C-0.306992 10.8865 0.0131823 15.4061 0.0131823 17.4993Z" fill="#F09DC7"/>
<path d="M114.691 18.3981C114.691 16.8895 115.922 15.6574 117.428 15.6574H120.505C120.505 15.5066 120.498 15.3494 120.492 15.186C120.473 14.5637 120.429 13.8785 120.329 13.1493C120.065 11.1693 119.419 8.87491 117.874 6.66855C113.398 0.231771 105.281 0.0683371 102.022 0.00547791H101.859C98.6009 0.0683371 90.4836 0.231771 86.0074 6.66855C84.463 8.87491 83.8164 11.163 83.5527 13.143C83.4523 13.8722 83.4083 14.5574 83.3895 15.186C83.3895 15.3494 83.377 15.5066 83.377 15.6574H86.7733C88.28 15.6574 89.5042 16.8895 89.5042 18.3981C89.5042 19.9067 88.28 21.1387 86.7733 21.1387H83.4711C83.4837 21.2896 83.5025 21.4468 83.5213 21.6102C83.5276 21.6919 83.5402 21.7799 83.5527 21.8616C83.8164 23.8417 84.463 26.1298 86.0074 28.3361C90.4836 34.7729 98.6009 34.93 101.859 34.9929H102.022C105.281 34.93 113.398 34.7729 117.874 28.3361C119.419 26.1298 120.065 23.8354 120.329 21.8553C120.341 21.7736 120.348 21.6919 120.36 21.6102C120.379 21.4468 120.398 21.2896 120.41 21.1387H117.428C115.922 21.1387 114.691 19.9067 114.691 18.3981ZM102.374 25.4132H101.508C99.2664 25.4132 97.3956 23.7725 97.0189 21.6102C96.9875 21.4593 96.9687 21.3022 96.9624 21.1387H96.253C94.7463 21.1387 93.5221 19.9067 93.5221 18.3981C93.5221 16.8895 94.7463 15.6574 96.253 15.6574H96.9435V14.2117C96.9435 11.6596 98.9902 9.59151 101.508 9.59151H102.374C104.891 9.59151 106.938 11.6596 106.938 14.2117V15.6574H107.942C109.449 15.6574 110.68 16.8895 110.68 18.3981C110.68 19.9067 109.449 21.1387 107.942 21.1387H106.919C106.913 21.3022 106.894 21.4593 106.863 21.6102C106.486 23.7725 104.615 25.4132 102.374 25.4132Z" fill="#262626"/>
<path d="M86.7676 15.6637C88.2743 15.6637 89.5048 16.8895 89.5048 18.4044C89.5048 19.9193 88.2806 21.145 86.7676 21.145H75.0781C73.5714 21.145 72.341 19.9193 72.341 18.4044C72.341 16.8895 73.5652 15.6637 75.0781 15.6637H86.7676ZM86.7676 15.1923H75.0781C73.3078 15.1923 71.8701 16.6317 71.8701 18.4044C71.8701 20.177 73.3078 21.6165 75.0781 21.6165H86.7676C88.538 21.6165 89.9757 20.177 89.9757 18.4044C89.9757 16.6317 88.538 15.1923 86.7676 15.1923Z" fill="#7F7F7F"/>
<path d="M129.112 15.6637C130.619 15.6637 131.85 16.8895 131.85 18.4044C131.85 19.9193 130.625 21.145 129.112 21.145H117.423C115.916 21.145 114.686 19.9193 114.686 18.4044C114.686 16.8895 115.91 15.6637 117.423 15.6637H129.112ZM129.112 15.1923H117.423C115.652 15.1923 114.215 16.6317 114.215 18.4044C114.215 20.177 115.652 21.6165 117.423 21.6165H129.112C130.883 21.6165 132.32 20.177 132.32 18.4044C132.32 16.6317 130.883 15.1923 129.112 15.1923Z" fill="#7F7F7F"/>
<path d="M107.943 15.6637C109.45 15.6637 110.681 16.8895 110.681 18.4044C110.681 19.9193 109.456 21.145 107.943 21.145H96.2539C94.7472 21.145 93.5167 19.9193 93.5167 18.4044C93.5167 16.8895 94.7409 15.6637 96.2539 15.6637H107.943ZM107.943 15.1923H96.2539C94.4835 15.1923 93.0459 16.6317 93.0459 18.4044C93.0459 20.177 94.4835 21.6165 96.2539 21.6165H107.943C109.714 21.6165 111.151 20.177 111.151 18.4044C111.151 16.6317 109.714 15.1923 107.943 15.1923Z" fill="#7F7F7F"/>
</g>
<defs>
<clipPath id="clip0_14_555">
<rect width="163" height="35" fill="white"/>
</clipPath>
</defs>
</svg>
